<?xml version="1.0" encoding="utf-8"?>
<!-- Generator: Adobe Illustrator 15.1.0, SVG Export Plug-In . SVG Version: 6.00 Build 0)  -->
<!DOCTYPE svg PUBLIC "-//W3C//DTD SVG 1.1//EN" "http://www.w3.org/Graphics/SVG/1.1/DTD/svg11.dtd">
<svg version="1.1" id="Layer_1" xmlns="http://www.w3.org/2000/svg" xmlns:xlink="http://www.w3.org/1999/xlink" x="0px" y="0px"
	 width="687.869px" height="345px" viewBox="0 0 687.869 345" enable-background="new 0 0 687.869 345" xml:space="preserve">
<g id="XMLID_113_">
	<g id="XMLID_20_">
		<path id="XMLID_55_" fill="#009EE2" d="M75.749,246.769c-2.143,0-4.222,0.779-4.222,2.598v30.396c0,5.065-2.663,7.469-7.144,7.469
			s-7.145-2.403-7.145-7.469v-30.396c0-1.818-2.143-2.598-4.222-2.598c-2.143,0-4.222,0.779-4.222,2.598v30.396
			c0,10.846,6.82,14.873,15.588,14.873c8.703,0,15.587-4.027,15.587-14.873v-30.396C79.97,247.548,77.827,246.769,75.749,246.769z"
			/>
		<path id="XMLID_54_" fill="#009EE2" d="M94.841,258.654c0-3.118,2.663-5.001,7.339-5.001c5.456,0,6.95,2.468,8.963,2.468
			c2.338,0,3.377-2.987,3.377-4.481c0-4.287-8.508-5.196-12.34-5.196c-7.469,0-15.783,3.313-15.783,12.99
			c0,15.393,20.849,12.405,20.849,22.147c0,3.896-3.377,5.65-7.274,5.65c-6.625,0-8.378-5.001-11.041-5.001
			c-2.013,0-3.702,2.728-3.702,4.546c0,3.768,6.495,8.054,15.003,8.054c8.963,0,15.458-4.806,15.458-14.094
			C115.689,263.915,94.841,266.708,94.841,258.654z"/>
		<path id="XMLID_51_" fill="#009EE2" d="M141.667,249.236c-0.585-1.948-2.988-2.857-5.456-2.857c-2.403,0-4.806,0.909-5.391,2.857
			l-12.535,40.853c-0.065,0.26-0.13,0.52-0.13,0.649c0,2.078,3.053,3.508,5.326,3.508c1.429,0,2.533-0.455,2.858-1.689l2.468-8.638
			h14.873l2.468,8.638c0.325,1.234,1.429,1.689,2.858,1.689c2.273,0,5.326-1.494,5.326-3.508c0-0.194-0.065-0.39-0.13-0.649
			L141.667,249.236z M130.56,277.294l5.65-19.938l5.65,19.938H130.56z"/>
		<path id="XMLID_47_" fill="#009EE2" d="M182.581,268.526c3.442-1.494,5.521-5.001,5.521-10.327c0-9.223-6.3-11.431-13.055-11.431
			h-12.535c-1.884,0-3.702,0.909-3.702,2.663v42.216c0,1.364,1.429,2.599,3.702,2.599h13.769c7.339,0,12.99-3.638,12.99-13.77
			v-1.364C189.271,272.618,186.543,270.085,182.581,268.526z M167.188,254.173h7.209c3.312,0,5.261,2.078,5.261,5.455
			c0,3.313-1.689,5.586-5.196,5.586h-7.274V254.173z M180.828,279.763c0,4.936-2.338,7.079-6.3,7.079h-7.339v-15.003h7.339
			c3.961,0,6.3,1.818,6.3,6.884V279.763z"/>
		<path id="XMLID_46_" fill="#009EE2" d="M219.599,286.842h-15.847v-37.476c0-1.818-2.144-2.598-4.222-2.598
			c-2.144,0-4.222,0.779-4.222,2.598v42.217c0,1.754,1.818,2.663,3.702,2.663h20.588c1.689,0,2.533-1.884,2.533-3.702
			C222.132,288.66,221.288,286.842,219.599,286.842z"/>
		<path id="XMLID_45_" fill="#009EE2" d="M253.565,254.173c1.688,0,2.663-1.754,2.663-3.768c0-1.753-0.844-3.637-2.663-3.637
			h-23.122c-1.883,0-3.702,0.909-3.702,2.663v42.151c0,1.754,1.819,2.663,3.702,2.663h23.122c1.818,0,2.663-1.884,2.663-3.638
			c0-2.013-0.974-3.767-2.663-3.767h-18.381v-13.055h9.873c1.818,0,2.663-1.754,2.663-3.247c0-1.754-0.974-3.378-2.663-3.378h-9.873
			v-12.989H253.565z"/>
		<path id="XMLID_44_" fill="#009EE2" d="M280.516,259.701c0,2.144,1.883,3.832,4.027,3.832c1.948,0,3.962-1.688,3.962-3.832
			c0-2.079-2.014-3.832-3.962-3.832C282.399,255.869,280.516,257.622,280.516,259.701z"/>
		<path id="XMLID_43_" fill="#009EE2" d="M294.999,267.495h-20.588c-1.559,0-2.728,1.429-2.728,3.313
			c0,1.948,1.169,3.182,2.728,3.182h20.588c1.429,0,2.793-1.233,2.793-3.182C297.792,268.924,296.428,267.495,294.999,267.495z"/>
		<path id="XMLID_42_" fill="#009EE2" d="M284.542,277.951c-2.144,0-4.027,1.624-4.027,3.832c0,2.078,1.883,3.832,4.027,3.832
			c1.948,0,3.962-1.754,3.962-3.832C288.504,279.575,286.491,277.951,284.542,277.951z"/>
		<path id="XMLID_41_" fill="#009EE2" d="M320.327,246.769c-2.144,0-4.222,0.779-4.222,2.598v42.217
			c0,1.754,2.078,2.663,4.222,2.663c2.078,0,4.222-0.909,4.222-2.663v-42.217C324.548,247.548,322.405,246.769,320.327,246.769z"/>
		<path id="XMLID_40_" fill="#009EE2" d="M365.724,246.769c-3.053,0-4.481,0.649-6.625,4.481l-7.989,14.548l-7.989-14.548
			c-2.143-3.832-3.507-4.481-6.56-4.481c-2.144,0-4.222,1.104-4.222,4.222v40.593c0,1.754,2.078,2.663,4.222,2.663
			c2.078,0,4.222-0.909,4.222-2.663v-28.447l7.469,14.028c0.714,1.299,1.754,1.688,2.793,1.688s2.143-0.39,2.858-1.688l7.599-13.509
			v27.928c0,1.754,2.079,2.663,4.222,2.663c2.079,0,4.222-0.909,4.222-2.663V250.99
			C369.946,247.872,367.868,246.769,365.724,246.769z"/>
		<path id="XMLID_37_" fill="#009EE2" d="M397.936,249.236c-0.585-1.948-2.987-2.857-5.456-2.857c-2.402,0-4.806,0.909-5.391,2.857
			l-12.535,40.853c-0.065,0.26-0.13,0.52-0.13,0.649c0,2.078,3.052,3.508,5.326,3.508c1.429,0,2.533-0.455,2.857-1.689l2.469-8.638
			h14.873l2.468,8.638c0.325,1.234,1.429,1.689,2.857,1.689c2.273,0,5.326-1.494,5.326-3.508c0-0.194-0.065-0.39-0.13-0.649
			L397.936,249.236z M386.83,277.294l5.65-19.938l5.65,19.938H386.83z"/>
		<path id="XMLID_36_" fill="#009EE2" d="M429.823,254.173c5.521,0,6.561,3.377,6.755,6.43c0.065,2.014,1.948,2.663,4.222,2.663
			c2.793,0,4.222-0.78,4.222-4.027c0-7.794-6.56-12.47-15.522-12.47c-8.249,0-14.938,4.026-14.938,14.873v18.121
			c0,10.846,6.625,14.873,15.198,14.873s15.263-4.027,15.263-14.873v-7.729c0-1.429-0.975-2.728-2.663-2.728h-11.041
			c-1.688,0-2.598,1.688-2.598,3.313c0,1.688,0.909,3.313,2.598,3.313h5.261v3.832c0,5.065-2.598,7.469-6.819,7.469
			c-4.286,0-6.755-2.403-6.755-7.469v-18.121C423.003,256.575,425.472,254.173,429.823,254.173z"/>
		<path id="XMLID_33_" fill="#009EE2" d="M455.93,246.769c-2.144,0-4.222,0.779-4.222,2.598v42.217c0,1.754,2.078,2.663,4.222,2.663
			c2.078,0,4.222-0.909,4.222-2.663v-42.217C460.152,247.548,458.008,246.769,455.93,246.769z"/>
		<path id="XMLID_31_" fill="#009EE2" d="M495.222,246.769c-2.144,0-4.222,0.779-4.222,2.598v26.109l-12.535-24.226
			c-2.013-3.832-3.247-4.481-6.3-4.481c-2.144,0-4.222,0.844-4.222,2.663v42.151c0,1.754,2.078,2.663,4.222,2.663
			c2.078,0,4.222-0.909,4.222-2.663v-26.109l13.964,26.109c1.104,2.014,2.857,2.663,4.871,2.663c2.078,0,4.222-0.909,4.222-2.663
			v-42.217C499.444,247.548,497.3,246.769,495.222,246.769z"/>
		<path id="XMLID_28_" fill="#009EE2" d="M527.434,249.236c-0.584-1.948-2.987-2.857-5.455-2.857c-2.403,0-4.807,0.909-5.392,2.857
			l-12.534,40.853c-0.065,0.26-0.13,0.52-0.13,0.649c0,2.078,3.052,3.508,5.325,3.508c1.429,0,2.533-0.455,2.857-1.689l2.469-8.638
			h14.873l2.468,8.638c0.325,1.234,1.429,1.689,2.857,1.689c2.273,0,5.326-1.494,5.326-3.508c0-0.194-0.064-0.39-0.13-0.649
			L527.434,249.236z M516.328,277.294l5.651-19.938l5.65,19.938H516.328z"/>
		<path id="XMLID_23_" fill="#009EE2" d="M568.35,268.526c3.442-1.494,5.521-5.001,5.521-10.327c0-9.223-6.3-11.431-13.055-11.431
			h-12.534c-1.884,0-3.702,0.909-3.702,2.663v42.216c0,1.364,1.429,2.599,3.702,2.599h13.769c7.34,0,12.99-3.638,12.99-13.77v-1.364
			C575.041,272.618,572.312,270.085,568.35,268.526z M552.958,254.173h7.21c3.312,0,5.261,2.078,5.261,5.455
			c0,3.313-1.689,5.586-5.196,5.586h-7.274V254.173z M566.597,279.763c0,4.936-2.339,7.079-6.301,7.079h-7.339v-15.003h7.339
			c3.962,0,6.301,1.818,6.301,6.884V279.763z"/>
		<path id="XMLID_22_" fill="#009EE2" d="M605.369,286.842h-15.848v-37.476c0-1.818-2.144-2.598-4.222-2.598
			c-2.144,0-4.222,0.779-4.222,2.598v42.217c0,1.754,1.818,2.663,3.702,2.663h20.589c1.688,0,2.533-1.884,2.533-3.702
			C607.902,288.66,607.057,286.842,605.369,286.842z"/>
		<path id="XMLID_21_" fill="#009EE2" d="M639.333,254.173c1.689,0,2.663-1.754,2.663-3.768c0-1.753-0.844-3.637-2.663-3.637
			h-23.121c-1.884,0-3.702,0.909-3.702,2.663v42.151c0,1.754,1.818,2.663,3.702,2.663h23.121c1.819,0,2.663-1.884,2.663-3.638
			c0-2.013-0.974-3.767-2.663-3.767h-18.38v-13.055h9.872c1.818,0,2.663-1.754,2.663-3.247c0-1.754-0.975-3.378-2.663-3.378h-9.872
			v-12.989H639.333z"/>
	</g>
	<g id="XMLID_2_">
		<path id="XMLID_575_" fill="#009EE2" d="M192.134,99.345h-18.79l5.78-30.839c-0.236-8.433-7.228-11.807-14.454-11.807
			c-6.019,0-12.043,2.409-12.768,6.503l-6.506,36.143h-26.493l5.537-30.839c0-8.433-6.983-11.807-14.213-11.807
			c-6.021,0-12.043,2.409-13.01,6.503l-6.502,36.143H67.106c-5.303,0-8.672,5.057-8.672,11.8c0,6.985,3.369,11.322,8.913,11.322
			h18.792l-5.303,29.626H57.469c-5.06,0-8.674,5.305-8.674,12.056c0,6.733,3.378,11.32,8.674,11.32h18.79l-5.784,34.203
			c0,7.71,8.438,11.57,15.178,11.57c4.819,0,11.326-2.895,12.047-7.233l6.985-38.54h26.02l-6.025,34.203
			c0,7.71,8.672,11.57,15.417,11.57c5.299,0,11.566-2.895,12.286-7.233l6.987-38.54h23.367c4.34,0,9.155-4.813,9.155-11.807
			c0-6.498-4.815-11.569-9.394-11.569h-18.792l5.539-29.626h23.124c4.579,0,8.922-4.82,8.922-11.565
			C201.292,104.159,196.715,99.345,192.134,99.345z M135.283,152.093h-26.021l5.303-29.626h26.259L135.283,152.093z"/>
		<path id="XMLID_577_" fill="#009EE2" d="M252.633,119.698h-17.096l2.661-36.633h49.97c5.773,0,8.656-6.227,8.656-12.664
			c0-6.213-2.883-12.658-8.656-12.658h-68.399c-3.333,0-5.108,3.554-5.555,9.109l-5.769,58.404c0,1.998-0.225,3.992-0.225,5.771
			c0,6.885,2.442,11.329,11.548,11.329h32.865c14.436,0,23.319,7.994,23.319,24.873v4.217c0,16.873-8.883,24.646-23.539,24.646
			c-12.885,0-22.872-5.996-22.872-16.875c0-6.217-2.227-11.105-14.436-11.105c-9.105,0-14.438,2.888-14.438,13.105
			c0,20.651,18.432,40.194,52.409,40.194c28.649,0,51.748-13.546,51.748-49.965v-4.217
			C304.823,132.36,281.947,119.698,252.633,119.698z"/>
		<path id="XMLID_578_" fill="#009EE2" d="M476.29,83.065c21.096,0,22.653,15.095,23.096,21.982
			c0.228,6.654,6.218,9.101,14.432,9.101c9.772,0,14.438-2.663,14.438-14.214c0-25.761-21.981-42.191-52.855-42.191
			c-27.983,0-51.3,13.771-51.3,50.854v61.962c0,37.082,23.096,50.853,51.08,50.853c31.094,0,53.075-17.1,53.075-43.967
			c0-11.327-4.665-14.221-14.663-14.221c-7.545,0-13.764,2.225-14.206,9.114c-0.667,9.319-2.442,23.753-22.653,23.753
			c-15.321,0-23.762-8.212-23.762-25.532v-61.962C452.97,91.279,461.411,83.065,476.29,83.065z"/>
		<path id="XMLID_1297_" fill="#009EE2" d="M589.514,57.743h-39.305c-7.556,0-12.658,4.218-12.658,8.88v144.572
			c0,4.663,5.103,8.886,12.658,8.886h39.305c29.316,0,52.187-13.768,52.187-50.86v-60.624
			C641.701,71.515,618.831,57.743,589.514,57.743z M612.831,169.221c0,17.325-8.66,25.54-23.316,25.54h-23.099V83.065h23.099
			c14.656,0,23.316,8.214,23.316,25.531V169.221z"/>
		<path id="XMLID_1300_" fill="#009EE2" d="M343.656,101.115c0-12.338,9.907-18.388,21.957-19.216
			c11.523,0.802,20.12,6.683,20.12,16.773c0,6.216,2.229,11.106,14.438,11.106c9.105,0,14.436-2.889,14.436-13.106
			c0-19.513-16.465-38.026-46.939-40.009h-0.027c-30.644,0-52.854,15.576-52.854,47.336c0,57.521,71.287,47.967,71.287,75.509
			c0,9.791-7.703,15.481-21.348,16.429h-0.011c-12.886,0-22.876-5.996-22.876-16.876c0-6.213-2.22-11.104-14.431-11.104
			c-9.105,0-14.44,2.889-14.44,13.106c0,19.741,16.854,38.453,48.013,40.067c0,0,1.63,0.115,2.443,0.092
			c0.649,0.015,1.95-0.083,1.95-0.083c24.297-1.251,49.568-13.099,49.568-44.3C414.941,124.215,343.656,134.424,343.656,101.115z"/>
	</g>
</g>
</svg>
