<?xml version="1.0" encoding="utf-8"?>
<!-- Generator: Adobe Illustrator 15.1.0, SVG Export Plug-In . SVG Version: 6.00 Build 0)  -->
<!DOCTYPE svg PUBLIC "-//W3C//DTD SVG 1.1//EN" "http://www.w3.org/Graphics/SVG/1.1/DTD/svg11.dtd">
<svg version="1.1" id="Layer_1" xmlns="http://www.w3.org/2000/svg" xmlns:xlink="http://www.w3.org/1999/xlink" x="0px" y="0px"
	 width="600px" height="600px" viewBox="0 0 600 600" enable-background="new 0 0 600 600" xml:space="preserve">
<g>
	<g>
		<rect x="122" y="122" fill="#0797A7" width="100" height="100"/>
		<polygon fill="#048897" points="122.333,221.667 122.333,122.333 221.667,122.333 		"/>
	</g>
	<g>
		<rect x="250" y="122" fill="#06BCD4" width="100" height="100"/>
		<polygon fill="#00AABF" points="250.333,221.667 250.333,122.333 349.667,122.333 		"/>
	</g>
	<g>
		<rect x="378" y="122" fill="#06BCD4" width="100" height="100"/>
		<polygon fill="#00AABF" points="378.334,221.667 378.334,122.333 477.668,122.333 		"/>
	</g>
	<g>
		<rect x="122" y="250" fill="#0797A7" width="100" height="100"/>
		<polygon fill="#048897" points="122.333,349.667 122.333,250.333 221.667,250.333 		"/>
	</g>
	<g>
		<rect x="250" y="250" fill="#06BCD4" width="100" height="100"/>
		<polygon fill="#00AABF" points="250.333,349.667 250.333,250.333 349.667,250.333 		"/>
	</g>
	<g>
		<rect x="378" y="250" fill="#FDC012" width="100" height="100"/>
		<polygon fill="#E5AE23" points="378.334,349.667 378.334,250.333 477.668,250.333 		"/>
	</g>
	<g>
		<rect x="122" y="378" fill="#903F98" width="100" height="100"/>
		<polygon fill="#893293" points="122.333,477.667 122.333,378.334 221.667,378.334 		"/>
	</g>
	<g>
		<rect x="250" y="378" fill="#E82064" width="100" height="100"/>
		<polygon fill="#D11D5A" points="250.333,477.667 250.333,378.334 349.667,378.334 		"/>
	</g>
	<g>
		<rect x="378" y="378" fill="#C21E5C" width="100" height="100"/>
		<polygon fill="#B01E53" points="378.334,477.667 378.334,378.334 477.668,378.334 		"/>
	</g>
</g>
</svg>
