<?xml version="1.0" encoding="utf-8"?>
<!-- Generator: Adobe Illustrator 15.1.0, SVG Export Plug-In . SVG Version: 6.00 Build 0)  -->
<!DOCTYPE svg PUBLIC "-//W3C//DTD SVG 1.1//EN" "http://www.w3.org/Graphics/SVG/1.1/DTD/svg11.dtd">
<svg version="1.1" id="Layer_1" xmlns="http://www.w3.org/2000/svg" xmlns:xlink="http://www.w3.org/1999/xlink" x="0px" y="0px"
	 width="776.961px" height="490.676px" viewBox="0 0 776.961 490.676" enable-background="new 0 0 776.961 490.676"
	 xml:space="preserve">
<g id="XMLID_803_">
	<path id="XMLID_909_" fill="#FFED00" d="M184.197,161.096h-18.633l5.492-29.373h22.927c4.54,0,8.846-4.78,8.846-11.469
		c0-6.684-4.537-11.458-9.08-11.458h-18.63l5.731-30.576c-0.234-8.36-7.167-11.707-14.332-11.707c-5.967,0-11.94,2.39-12.658,6.448
		l-6.451,35.835h-26.268l5.49-30.576c0-8.36-6.924-11.707-14.093-11.707c-5.969,0-11.94,2.39-12.899,6.448l-6.446,35.835H69.785
		c-5.259,0-8.599,5.014-8.599,11.7c0,6.926,3.34,11.227,8.837,11.227h18.632l-5.258,29.373H60.229c-5.017,0-8.6,5.26-8.6,11.953
		c0,6.677,3.349,11.225,8.6,11.225H78.86l-5.735,33.912c0,7.645,8.366,11.472,15.049,11.472c4.778,0,11.229-2.87,11.945-7.171
		l6.926-38.213h25.799l-5.974,33.912c0,7.645,8.599,11.472,15.286,11.472c5.253,0,11.468-2.87,12.181-7.171l6.929-38.213h23.168
		c4.304,0,9.077-4.771,9.077-11.706C193.511,166.124,188.737,161.096,184.197,161.096z M137.382,161.096h-25.799l5.258-29.373
		h26.035L137.382,161.096z"/>
	<path id="XMLID_908_" fill="#FFED00" d="M253.516,204.722c-12.775,0-22.677-5.946-22.677-16.731
		c0-6.164-2.208-11.012-14.313-11.012c-9.028,0-14.315,2.863-14.315,12.994c0,20.476,18.275,39.853,51.963,39.853
		c28.406,0,51.309-13.431,51.309-49.54v-4.181c0-34.573-22.682-47.127-51.747-47.127h-16.951l2.638-36.322h49.546
		c5.724,0,8.582-6.174,8.582-12.557c0-6.16-2.858-12.55-8.582-12.55h-67.818c-3.304,0-5.063,3.523-5.507,9.031l-5.72,57.908
		c0,1.98-0.223,3.958-0.223,5.722c0,6.826,2.422,11.232,11.449,11.232h32.586c14.313,0,23.12,7.926,23.12,24.662v4.181
		C276.854,197.015,268.048,204.722,253.516,204.722z"/>
	<path id="XMLID_907_" fill="#FFED00" d="M474.389,229.825c30.829,0,52.624-16.955,52.624-43.594
		c0-11.23-4.625-14.099-14.538-14.099c-7.481,0-13.646,2.205-14.086,9.036c-0.661,9.24-2.422,23.551-22.461,23.551
		c-15.19,0-23.56-8.142-23.56-25.314V117.97c0-17.171,8.369-25.314,23.121-25.314c20.917,0,22.461,14.966,22.899,21.796
		c0.226,6.598,6.165,9.022,14.309,9.022c9.69,0,14.315-2.64,14.315-14.092c0-25.543-21.795-41.833-52.406-41.833
		c-27.746,0-50.864,13.654-50.864,50.421v61.436C423.742,216.171,446.643,229.825,474.389,229.825z"/>
	<path id="XMLID_904_" fill="#FFED00" d="M587.752,67.549h-38.971c-7.491,0-12.551,4.182-12.551,8.804v143.344
		c0,4.623,5.06,8.81,12.551,8.81h38.971c29.067,0,51.742-13.65,51.742-50.428V117.97C639.494,81.203,616.819,67.549,587.752,67.549z
		 M610.87,178.078c0,17.179-8.587,25.323-23.118,25.323H564.85V92.655h22.902c14.531,0,23.118,8.144,23.118,25.314V178.078z"/>
	<path id="XMLID_903_" fill="#FFED00" d="M364.874,204.568h-0.012c-12.775,0-22.682-5.945-22.682-16.732
		c0-6.161-2.201-11.011-14.309-11.011c-9.027,0-14.317,2.864-14.317,12.995c0,19.573,16.71,38.126,47.605,39.727
		c0,0,1.616,0.115,2.422,0.091c0.644,0.016,1.934-0.082,1.934-0.082c24.091-1.24,49.146-12.987,49.146-43.923
		c0-52.178-70.679-42.056-70.679-75.081c0-12.233,9.823-18.231,21.771-19.052c11.425,0.794,19.949,6.625,19.949,16.63
		c0,6.163,2.21,11.013,14.315,11.013c9.028,0,14.313-2.864,14.313-12.995c0-19.348-16.325-37.703-46.54-39.669h-0.027
		c-30.384,0-52.403,15.444-52.403,46.933c0,57.032,70.681,47.56,70.681,74.868C386.041,197.987,378.403,203.629,364.874,204.568z"/>
	<path id="XMLID_902_" fill="#FFED00" d="M78.337,390.87c-2.124,0-4.184,0.771-4.184,2.574v30.117c0,5.02-2.639,7.4-7.079,7.4
		s-7.079-2.381-7.079-7.4v-30.117c0-1.803-2.123-2.574-4.183-2.574c-2.124,0-4.183,0.771-4.183,2.574v30.117
		c0,10.748,6.757,14.737,15.444,14.737c8.624,0,15.445-3.989,15.445-14.737v-30.117C82.52,391.642,80.396,390.87,78.337,390.87z"/>
	<path id="XMLID_901_" fill="#FFED00" d="M97.254,402.646c0-3.089,2.639-4.955,7.272-4.955c5.405,0,6.886,2.445,8.881,2.445
		c2.316,0,3.346-2.96,3.346-4.44c0-4.247-8.43-5.148-12.227-5.148c-7.401,0-15.639,3.282-15.639,12.871
		c0,15.252,20.658,12.292,20.658,21.944c0,3.861-3.347,5.599-7.208,5.599c-6.564,0-8.302-4.955-10.94-4.955
		c-1.995,0-3.668,2.703-3.668,4.505c0,3.733,6.436,7.98,14.866,7.98c8.881,0,15.316-4.763,15.316-13.965
		C117.912,407.859,97.254,410.627,97.254,402.646z"/>
	<path id="XMLID_898_" fill="#FFED00" d="M143.651,393.315c-0.58-1.931-2.961-2.832-5.406-2.832c-2.381,0-4.763,0.901-5.342,2.832
		l-12.42,40.479c-0.064,0.258-0.129,0.516-0.129,0.644c0,2.06,3.024,3.476,5.277,3.476c1.416,0,2.51-0.451,2.831-1.674l2.445-8.559
		h14.737l2.445,8.559c0.322,1.223,1.416,1.674,2.832,1.674c2.252,0,5.277-1.48,5.277-3.476c0-0.192-0.064-0.386-0.129-0.644
		L143.651,393.315z M132.646,421.116l5.599-19.757l5.599,19.757H132.646z"/>
	<path id="XMLID_894_" fill="#FFED00" d="M184.191,412.429c3.411-1.48,5.47-4.955,5.47-10.232c0-9.139-6.242-11.326-12.935-11.326
		h-12.421c-1.866,0-3.668,0.9-3.668,2.639v41.83c0,1.352,1.416,2.574,3.668,2.574h13.644c7.271,0,12.871-3.604,12.871-13.644v-1.352
		C190.82,416.482,188.117,413.973,184.191,412.429z M168.939,398.206h7.144c3.282,0,5.213,2.06,5.213,5.406
		c0,3.281-1.674,5.534-5.148,5.534h-7.208V398.206z M182.454,423.562c0,4.892-2.317,7.015-6.242,7.015h-7.272v-14.865h7.272
		c3.925,0,6.242,1.802,6.242,6.821V423.562z"/>
	<path id="XMLID_893_" fill="#FFED00" d="M220.871,430.576h-15.703v-37.132c0-1.803-2.123-2.574-4.183-2.574
		c-2.124,0-4.184,0.771-4.184,2.574v41.83c0,1.737,1.803,2.639,3.669,2.639h20.4c1.673,0,2.51-1.866,2.51-3.668
		C223.381,432.378,222.544,430.576,220.871,430.576z"/>
	<path id="XMLID_892_" fill="#FFED00" d="M254.525,398.206c1.673,0,2.639-1.737,2.639-3.732c0-1.737-0.837-3.604-2.639-3.604h-22.91
		c-1.866,0-3.668,0.9-3.668,2.639v41.766c0,1.737,1.802,2.639,3.668,2.639h22.91c1.802,0,2.639-1.866,2.639-3.604
		c0-1.995-0.966-3.733-2.639-3.733h-18.212v-12.935h9.781c1.802,0,2.639-1.738,2.639-3.218c0-1.738-0.965-3.347-2.639-3.347h-9.781
		v-12.871H254.525z"/>
	<path id="XMLID_891_" fill="#FFED00" d="M281.229,403.684c0,2.124,1.866,3.798,3.99,3.798c1.931,0,3.926-1.674,3.926-3.798
		c0-2.059-1.995-3.797-3.926-3.797C283.096,399.887,281.229,401.625,281.229,403.684z"/>
	<path id="XMLID_890_" fill="#FFED00" d="M295.581,411.406h-20.4c-1.545,0-2.703,1.416-2.703,3.282c0,1.931,1.158,3.153,2.703,3.153
		h20.4c1.416,0,2.767-1.223,2.767-3.153C298.348,412.822,296.997,411.406,295.581,411.406z"/>
	<path id="XMLID_889_" fill="#FFED00" d="M285.22,421.768c-2.124,0-3.99,1.608-3.99,3.797c0,2.06,1.866,3.797,3.99,3.797
		c1.931,0,3.926-1.737,3.926-3.797C289.146,423.376,287.15,421.768,285.22,421.768z"/>
	<path id="XMLID_888_" fill="#FFED00" d="M320.677,390.87c-2.124,0-4.184,0.771-4.184,2.574v41.83c0,1.737,2.06,2.639,4.184,2.639
		c2.059,0,4.183-0.901,4.183-2.639v-41.83C324.859,391.642,322.735,390.87,320.677,390.87z"/>
	<path id="XMLID_887_" fill="#FFED00" d="M365.658,390.87c-3.024,0-4.44,0.644-6.563,4.44l-7.916,14.415l-7.915-14.415
		c-2.124-3.797-3.476-4.44-6.5-4.44c-2.124,0-4.184,1.094-4.184,4.183v40.222c0,1.737,2.06,2.639,4.184,2.639
		c2.06,0,4.183-0.901,4.183-2.639v-28.188l7.401,13.9c0.708,1.287,1.737,1.674,2.767,1.674c1.03,0,2.124-0.387,2.832-1.674
		l7.529-13.386v27.673c0,1.737,2.06,2.639,4.183,2.639c2.06,0,4.184-0.901,4.184-2.639v-40.222
		C369.842,391.964,367.782,390.87,365.658,390.87z"/>
	<path id="XMLID_884_" fill="#FFED00" d="M397.576,393.315c-0.58-1.931-2.961-2.832-5.406-2.832c-2.381,0-4.763,0.901-5.341,2.832
		l-12.421,40.479c-0.064,0.258-0.129,0.516-0.129,0.644c0,2.06,3.024,3.476,5.277,3.476c1.416,0,2.51-0.451,2.831-1.674l2.445-8.559
		h14.738l2.445,8.559c0.321,1.223,1.415,1.674,2.831,1.674c2.253,0,5.277-1.48,5.277-3.476c0-0.192-0.064-0.386-0.129-0.644
		L397.576,393.315z M386.571,421.116l5.599-19.757l5.599,19.757H386.571z"/>
	<path id="XMLID_883_" fill="#FFED00" d="M429.171,398.206c5.471,0,6.5,3.347,6.693,6.371c0.063,1.995,1.931,2.639,4.183,2.639
		c2.768,0,4.183-0.772,4.183-3.99c0-7.723-6.499-12.355-15.38-12.355c-8.173,0-14.802,3.989-14.802,14.737v17.954
		c0,10.748,6.564,14.737,15.059,14.737c8.495,0,15.123-3.989,15.123-14.737v-7.658c0-1.416-0.965-2.702-2.638-2.702h-10.94
		c-1.674,0-2.574,1.673-2.574,3.281c0,1.674,0.9,3.282,2.574,3.282h5.213v3.797c0,5.02-2.574,7.4-6.758,7.4
		c-4.247,0-6.692-2.381-6.692-7.4v-17.954C422.414,400.587,424.859,398.206,429.171,398.206z"/>
	<path id="XMLID_882_" fill="#FFED00" d="M455.039,390.87c-2.124,0-4.184,0.771-4.184,2.574v41.83c0,1.737,2.06,2.639,4.184,2.639
		c2.06,0,4.183-0.901,4.183-2.639v-41.83C459.222,391.642,457.099,390.87,455.039,390.87z"/>
	<path id="XMLID_881_" fill="#FFED00" d="M493.972,390.87c-2.123,0-4.183,0.771-4.183,2.574v25.87l-12.421-24.004
		c-1.994-3.797-3.218-4.44-6.242-4.44c-2.124,0-4.183,0.836-4.183,2.639v41.766c0,1.737,2.059,2.639,4.183,2.639
		c2.06,0,4.184-0.901,4.184-2.639v-25.87l13.836,25.87c1.094,1.995,2.831,2.639,4.826,2.639c2.06,0,4.184-0.901,4.184-2.639v-41.83
		C498.155,391.642,496.031,390.87,493.972,390.87z"/>
	<path id="XMLID_878_" fill="#FFED00" d="M525.889,393.315c-0.579-1.931-2.96-2.832-5.405-2.832c-2.381,0-4.763,0.901-5.342,2.832
		l-12.42,40.479c-0.064,0.258-0.129,0.516-0.129,0.644c0,2.06,3.024,3.476,5.277,3.476c1.415,0,2.51-0.451,2.831-1.674l2.445-8.559
		h14.737l2.445,8.559c0.322,1.223,1.416,1.674,2.832,1.674c2.252,0,5.277-1.48,5.277-3.476c0-0.192-0.064-0.386-0.129-0.644
		L525.889,393.315z M514.885,421.116l5.599-19.757l5.599,19.757H514.885z"/>
	<path id="XMLID_874_" fill="#FFED00" d="M566.431,412.429c3.411-1.48,5.47-4.955,5.47-10.232c0-9.139-6.242-11.326-12.935-11.326
		h-12.42c-1.867,0-3.669,0.9-3.669,2.639v41.83c0,1.352,1.416,2.574,3.669,2.574h13.643c7.271,0,12.871-3.604,12.871-13.644v-1.352
		C573.06,416.482,570.356,413.973,566.431,412.429z M551.179,398.206h7.144c3.282,0,5.213,2.06,5.213,5.406
		c0,3.281-1.674,5.534-5.148,5.534h-7.208V398.206z M564.693,423.562c0,4.892-2.317,7.015-6.242,7.015h-7.272v-14.865h7.272
		c3.925,0,6.242,1.802,6.242,6.821V423.562z"/>
	<path id="XMLID_873_" fill="#FFED00" d="M603.11,430.576h-15.703v-37.132c0-1.803-2.123-2.574-4.183-2.574
		c-2.124,0-4.183,0.771-4.183,2.574v41.83c0,1.737,1.802,2.639,3.668,2.639h20.4c1.673,0,2.51-1.866,2.51-3.668
		C605.62,432.378,604.783,430.576,603.11,430.576z"/>
	<path id="XMLID_872_" fill="#FFED00" d="M636.765,398.206c1.674,0,2.639-1.737,2.639-3.732c0-1.737-0.837-3.604-2.639-3.604h-22.91
		c-1.866,0-3.668,0.9-3.668,2.639v41.766c0,1.737,1.802,2.639,3.668,2.639h22.91c1.802,0,2.639-1.866,2.639-3.604
		c0-1.995-0.965-3.733-2.639-3.733h-18.212v-12.935h9.781c1.803,0,2.639-1.738,2.639-3.218c0-1.738-0.965-3.347-2.639-3.347h-9.781
		v-12.871H636.765z"/>
	<path id="XMLID_871_" fill="#FFED00" d="M65.104,297.214c-8.014,0-9.296-5.321-10.963-5.321c-0.962,0-1.924,1.346-1.924,2.371
		c0,2.309,4.937,6.925,13.144,6.925c7.886,0,13.528-4.104,13.528-13.207c0-17.76-21.286-11.027-21.286-22.953
		c0-5.706,4.553-7.438,9.296-7.438c5.643,0,7.759,2.438,8.977,2.438c1.154,0,1.859-1.539,1.859-2.373
		c0-2.308-5.963-3.911-10.771-3.911c-5.962,0-13.592,2.309-13.592,11.669c0,15.645,21.286,8.72,21.286,22.952
		C74.657,294.199,71.066,297.214,65.104,297.214z"/>
	<path id="XMLID_870_" fill="#FFED00" d="M111.2,257.783c1.026,0,1.603-0.962,1.603-2.052c0-0.896-0.448-1.858-1.603-1.858H88.376
		c-0.962,0-1.924,0.513-1.924,1.604v43.597c0,1.089,0.962,1.667,1.924,1.667H111.2c1.154,0,1.603-1.026,1.603-1.925
		c0-1.025-0.576-1.987-1.603-1.987H90.685V279.07h10.065c1.154,0,1.603-0.898,1.603-1.732c0-1.025-0.577-1.923-1.603-1.923H90.685
		v-17.632H111.2z"/>
	<path id="XMLID_869_" fill="#FFED00" d="M144.795,253.873c-0.705,0-1.347,0.319-1.603,1.09l-11.797,39.365l-11.861-39.365
		c-0.192-0.771-0.897-1.09-1.666-1.09c-1.091,0-2.438,0.705-2.438,1.795c0,0.128,0,0.321,0.064,0.449l13.4,43.469
		c0.32,1.089,1.41,1.539,2.5,1.539c1.154,0,2.244-0.513,2.564-1.539l13.336-43.469c0-0.128,0.063-0.257,0.063-0.386
		C147.359,254.706,145.949,253.873,144.795,253.873z"/>
	<path id="XMLID_868_" fill="#FFED00" d="M157.745,255.412c0-1.091-1.09-1.539-2.115-1.539c-1.091,0-2.116,0.448-2.116,1.539v43.661
		c0,1.089,1.025,1.667,2.116,1.667c1.025,0,2.115-0.578,2.115-1.667V255.412z"/>
	<path id="XMLID_867_" fill="#FFED00" d="M189.993,296.828h-18.272v-41.416c0-1.091-1.089-1.539-2.115-1.539
		c-1.09,0-2.116,0.448-2.116,1.539v43.661c0,1.089,0.962,1.667,1.924,1.667h20.58c0.962,0,1.411-0.962,1.411-1.987
		C191.404,297.79,190.955,296.828,189.993,296.828z"/>
	<path id="XMLID_866_" fill="#FFED00" d="M199.289,253.873c-1.09,0-2.116,0.448-2.116,1.539v43.661c0,1.089,0.963,1.667,1.924,1.667
		h20.581c0.961,0,1.409-0.962,1.409-1.987c0-0.963-0.448-1.925-1.409-1.925h-18.273v-41.416
		C201.404,254.321,200.314,253.873,199.289,253.873z"/>
	<path id="XMLID_863_" fill="#FFED00" d="M251.093,299.649c0.256,0.77,0.897,1.091,1.603,1.091c1.153,0,2.564-0.834,2.564-1.86
		c0-0.127-0.064-0.256-0.064-0.384l-13.335-43.533c-0.321-0.962-1.411-1.476-2.564-1.476c-1.091,0-2.18,0.45-2.5,1.476l-13.4,43.533
		c-0.064,0.128-0.064,0.319-0.064,0.448c0,1.091,1.347,1.796,2.437,1.796c0.77,0,1.475-0.321,1.667-1.091l2.949-9.873h17.76
		L251.093,299.649z M231.474,286.122l7.822-25.838l7.758,25.838H231.474z"/>
	<path id="XMLID_862_" fill="#FFED00" d="M287.251,257.783c7.63,0,8.848,5.001,8.976,7.758c0.063,0.898,0.642,1.604,2.115,1.604
		c1.476,0,2.116-0.448,2.116-2.564c0-5.771-4.809-10.707-13.207-10.707c-7.31,0-13.464,3.718-13.464,13.655v19.876
		c0,10.002,6.026,13.721,13.271,13.721c8.463,0,13.4-5.001,13.4-10.835c0-2.116-0.641-2.629-2.116-2.629
		c-1.346,0-1.987,0.642-2.115,1.667c-0.385,3.077-1.09,7.886-8.72,7.886c-6.219,0-9.488-3.077-9.488-9.81v-19.876
		C278.019,260.86,281.288,257.783,287.251,257.783z"/>
	<path id="XMLID_861_" fill="#FFED00" d="M309.947,300.74c1.025,0,2.115-0.578,2.115-1.667v-43.661c0-1.091-1.09-1.539-2.115-1.539
		c-1.091,0-2.116,0.448-2.116,1.539v43.661C307.831,300.162,308.856,300.74,309.947,300.74z"/>
	<path id="XMLID_860_" fill="#FFED00" d="M323.729,253.873c-1.025,0-2.116,0.448-2.116,1.539v31.992
		c0,10.002,5.898,13.721,13.465,13.721c7.501,0,13.463-3.719,13.463-13.721v-31.992c0-1.091-1.089-1.539-2.115-1.539
		c-1.09,0-2.115,0.448-2.115,1.539v31.992c0,6.668-3.463,9.81-9.232,9.81c-5.771,0-9.232-3.142-9.232-9.81v-31.992
		C325.846,254.321,324.82,253.873,323.729,253.873z"/>
	<path id="XMLID_857_" fill="#FFED00" d="M384.764,287.019v-19.49c0-9.938-5.898-13.655-13.399-13.655h-11.348
		c-1.154,0-1.924,0.705-1.924,1.539v43.725c0,0.834,0.77,1.604,1.924,1.604h11.348C378.865,300.74,384.764,297.021,384.764,287.019z
		 M380.533,287.019c0,6.668-3.463,9.81-9.169,9.81h-9.041v-39.045h9.041c5.706,0,9.169,3.077,9.169,9.745V287.019z"/>
	<path id="XMLID_854_" fill="#FFED00" d="M406.434,253.487c-1.089,0-2.179,0.45-2.5,1.476l-13.4,43.533
		c-0.063,0.128-0.063,0.319-0.063,0.448c0,1.091,1.347,1.796,2.436,1.796c0.77,0,1.476-0.321,1.667-1.091l2.949-9.873h17.76
		l2.948,9.873c0.258,0.77,0.898,1.091,1.604,1.091c1.154,0,2.564-0.834,2.564-1.86c0-0.127-0.064-0.256-0.064-0.384l-13.336-43.533
		C408.679,254.001,407.589,253.487,406.434,253.487z M398.612,286.122l7.821-25.838l7.758,25.838H398.612z"/>
	<path id="XMLID_851_" fill="#FFED00" d="M430.54,253.873c-1.154,0-1.924,0.705-1.924,1.539v43.725c0,0.834,0.77,1.604,1.924,1.604
		h11.348c7.502,0,13.4-3.719,13.4-13.722v-19.49c0-9.938-5.898-13.655-13.4-13.655H430.54z M451.057,267.528v19.49
		c0,6.668-3.463,9.81-9.169,9.81h-9.04v-39.045h9.04C447.594,257.783,451.057,260.86,451.057,267.528z"/>
	<path id="XMLID_848_" fill="#FFED00" d="M504.013,267.528c0-9.938-5.898-13.655-13.4-13.655h-11.348
		c-1.154,0-1.923,0.705-1.923,1.539v43.725c0,0.834,0.769,1.604,1.923,1.604h11.348c7.502,0,13.4-3.719,13.4-13.722V267.528z
		 M499.78,287.019c0,6.668-3.461,9.81-9.168,9.81h-9.039v-39.045h9.039c5.707,0,9.168,3.077,9.168,9.745V287.019z"/>
	<path id="XMLID_847_" fill="#FFED00" d="M537.991,257.783c1.025,0,1.603-0.962,1.603-2.052c0-0.896-0.448-1.858-1.603-1.858
		h-22.823c-0.963,0-1.924,0.513-1.924,1.604v43.597c0,1.089,0.961,1.667,1.924,1.667h22.823c1.154,0,1.603-1.026,1.603-1.925
		c0-1.025-0.577-1.987-1.603-1.987h-20.517V279.07h10.066c1.154,0,1.603-0.898,1.603-1.732c0-1.025-0.577-1.923-1.603-1.923h-10.066
		v-17.632H537.991z"/>
	<path id="XMLID_844_" fill="#FFED00" d="M571.907,300.74c7.502,0,13.4-3.719,13.4-13.722v-19.49c0-9.938-5.898-13.655-13.4-13.655
		h-11.349c-1.153,0-1.923,0.705-1.923,1.539v43.725c0,0.834,0.77,1.604,1.923,1.604H571.907z M562.868,257.783h9.039
		c5.707,0,9.168,3.077,9.168,9.745v19.49c0,6.668-3.461,9.81-9.168,9.81h-9.039V257.783z"/>
	<path id="XMLID_843_" fill="#FFED00" d="M598.77,299.073v-43.661c0-1.091-1.089-1.539-2.115-1.539c-1.09,0-2.116,0.448-2.116,1.539
		v43.661c0,1.089,1.026,1.667,2.116,1.667C597.681,300.74,598.77,300.162,598.77,299.073z"/>
	<path id="XMLID_842_" fill="#FFED00" d="M618.837,297.214c-8.015,0-9.297-5.321-10.964-5.321c-0.962,0-1.923,1.346-1.923,2.371
		c0,2.309,4.938,6.925,13.144,6.925c7.886,0,13.527-4.104,13.527-13.207c0-17.76-21.285-11.027-21.285-22.953
		c0-5.706,4.552-7.438,9.296-7.438c5.643,0,7.758,2.438,8.977,2.438c1.153,0,1.858-1.539,1.858-2.373
		c0-2.308-5.962-3.911-10.771-3.911c-5.962,0-13.591,2.309-13.591,11.669c0,15.645,21.285,8.72,21.285,22.952
		C628.39,294.199,624.799,297.214,618.837,297.214z"/>
	<path id="XMLID_841_" fill="#FFED00" d="M666.535,298.815c0-1.025-0.577-1.987-1.603-1.987h-20.517V279.07h10.065
		c1.155,0,1.604-0.898,1.604-1.732c0-1.025-0.577-1.923-1.604-1.923h-10.065v-17.632h20.517c1.025,0,1.603-0.962,1.603-2.052
		c0-0.896-0.448-1.858-1.603-1.858h-22.824c-0.962,0-1.924,0.513-1.924,1.604v43.597c0,1.089,0.962,1.667,1.924,1.667h22.824
		C666.087,300.74,666.535,299.714,666.535,298.815z"/>
	<path id="XMLID_840_" fill="#FFED00" d="M697.63,253.873c-1.091,0-2.116,0.448-2.116,1.539v35.518l-17.311-34.108
		c-0.834-1.603-1.795-2.948-3.334-2.948c-1.09,0-2.116,0.448-2.116,1.604v43.597c0,1.089,1.026,1.667,2.116,1.667
		c1.026,0,2.115-0.578,2.115-1.667v-35.455l17.824,34.685c0.641,1.283,1.603,2.438,2.821,2.438c1.025,0,2.115-0.578,2.115-1.667
		v-43.661C699.745,254.321,698.655,253.873,697.63,253.873z"/>
	<path id="XMLID_839_" fill="#FFED00" d="M677.369,245.218c1.091,0,1.987-2.051,4.744-2.051c3.463,0,5.065,2.243,8.527,2.243
		c1.86,0,5.386-1.026,5.386-3.654c0-0.578-0.448-1.475-1.282-1.475c-1.153,0-1.603,1.859-4.487,1.859
		c-3.334,0-5.129-2.181-8.463-2.181c-2.052,0-5.643,1.282-5.643,3.655C676.151,244.319,676.536,245.218,677.369,245.218z"/>
	<path id="XMLID_836_" fill="#FFED00" d="M722.313,253.873c-7.502,0-13.336,3.718-13.336,13.655v19.876
		c0,10.002,5.834,13.721,13.336,13.721s13.336-3.719,13.336-13.721v-19.876C735.649,257.591,729.815,253.873,722.313,253.873z
		 M731.418,287.404c0,6.732-3.398,9.81-9.104,9.81c-5.707,0-9.104-3.077-9.104-9.81v-19.876c0-6.668,3.397-9.745,9.104-9.745
		c5.706,0,9.104,3.077,9.104,9.745V287.404z"/>
	<path id="XMLID_835_" fill="#FFED00" d="M54.638,334.402l2.196-2.196v36.646c0,1.854,2.196,2.814,4.461,2.814
		c2.196,0,4.461-0.961,4.461-2.814v-44.607c0-1.784-2.127-2.882-3.98-2.882c-0.755,0-1.372,0.274-1.853,0.687l-8.099,6.176
		c-1.098,0.687-1.715,1.99-1.715,3.227c0,1.783,1.167,3.567,2.882,3.567C53.472,335.02,54.09,334.883,54.638,334.402z"/>
	<path id="XMLID_834_" fill="#FFED00" d="M103.088,356.637v-1.304c0-10.773-7.068-14.686-16.128-14.686h-5.284l0.824-11.324h15.44
		c1.784,0,2.677-1.921,2.677-3.911c0-1.921-0.893-3.912-2.677-3.912H76.804c-1.029,0-1.578,1.099-1.716,2.814l-1.784,18.049
		c0,0.617-0.068,1.235-0.068,1.784c0,2.128,0.754,3.5,3.568,3.5H86.96c4.461,0,7.206,2.471,7.206,7.686v1.304
		c0,5.216-2.745,7.618-7.274,7.618c-3.979,0-7.068-1.854-7.068-5.215c0-1.923-0.687-3.432-4.461-3.432
		c-2.813,0-4.461,0.893-4.461,4.048c0,6.384,5.696,12.422,16.196,12.422C95.95,372.078,103.088,367.893,103.088,356.637z"/>
	<path id="XMLID_833_" fill="#FFED00" d="M111.184,362.745c-2.677,0-4.667,2.127-4.667,4.667c0,2.47,1.99,4.666,4.667,4.666
		c2.471,0,4.598-2.196,4.598-4.666C115.781,364.872,113.654,362.745,111.184,362.745z"/>
	<path id="XMLID_830_" fill="#FFED00" d="M120.858,337.216v19.147c0,11.461,7,15.715,16.059,15.715s16.127-4.254,16.127-15.715
		v-19.147c0-11.46-7.068-15.716-16.127-15.716S120.858,325.756,120.858,337.216z M144.123,337.216v19.147
		c0,5.422-2.745,7.892-7.206,7.892c-4.529,0-7.138-2.47-7.138-7.892v-19.147c0-5.421,2.608-7.893,7.138-7.893
		C141.378,329.323,144.123,331.795,144.123,337.216z"/>
	<path id="XMLID_829_" fill="#FFED00" d="M173.355,372.078c9.059,0,16.471-4.186,16.471-15.234v-1.304c0-5.696-2.951-8.784-7-10.364
		c3.362-1.577,5.353-5.97,5.353-11.392c0-9.127-6.177-12.284-14.48-12.284c-11.598,0-15.029,7.069-15.029,11.941
		c0,2.882,0.618,3.843,4.599,3.843c3.294,0,4.254-1.373,4.254-3.431c0-2.746,1.647-4.598,6.108-4.598
		c3.706,0,6.039,1.509,6.039,6.039c0,5.901-2.883,6.725-6.313,6.725c-1.99,0-2.677,1.784-2.677,3.501c0,1.783,0.687,3.5,2.677,3.5
		c4.393,0,7.549,1.44,7.549,6.52v1.304c0,5.215-2.195,7.411-7.343,7.411c-4.393,0-7.138-1.922-7.138-5.01
		c0-2.196-0.96-3.157-4.598-3.157c-3.089,0-4.255,0.756-4.255,3.5C157.571,365.147,162.101,372.078,173.355,372.078z"/>
	<path id="XMLID_828_" fill="#FFED00" d="M203.138,367.412c0-2.54-2.128-4.667-4.599-4.667c-2.676,0-4.666,2.127-4.666,4.667
		c0,2.47,1.99,4.666,4.666,4.666C201.01,372.078,203.138,369.882,203.138,367.412z"/>
	<path id="XMLID_827_" fill="#FFED00" d="M210.822,371.667h24.431c1.511,0,2.814-1.922,2.814-3.98s-1.304-3.843-2.814-3.843h-19.078
		v-1.647c0-7.137,21.755-11.941,21.755-26.764c0-8.717-7.411-13.933-15.372-13.933c-7.618,0-14.755,4.804-14.755,12.627
		c0,3.707,1.716,4.806,4.049,4.806c2.951,0,4.667-1.648,4.667-3.295c0-4.255,2.744-6.039,6.107-6.039
		c4.529,0,6.383,3.293,6.383,6.107c0,9.677-22.098,15.51-22.098,26.49v6.656C206.911,370.569,209.244,371.667,210.822,371.667z"/>
	<path id="XMLID_824_" fill="#FFED00" d="M275.192,337.216c0-11.46-7.069-15.716-16.128-15.716s-16.059,4.256-16.059,15.716v19.147
		c0,11.461,7,15.715,16.059,15.715s16.128-4.254,16.128-15.715V337.216z M266.271,356.363c0,5.422-2.745,7.892-7.206,7.892
		c-4.529,0-7.137-2.47-7.137-7.892v-19.147c0-5.421,2.607-7.893,7.137-7.893c4.461,0,7.206,2.472,7.206,7.893V356.363z"/>
	<path id="XMLID_823_" fill="#FFED00" d="M294.199,368.853v-44.607c0-1.784-2.128-2.882-3.98-2.882
		c-0.755,0-1.372,0.274-1.853,0.687l-8.099,6.176c-1.098,0.687-1.715,1.99-1.715,3.227c0,1.783,1.166,3.567,2.882,3.567
		c0.48,0,1.098-0.137,1.646-0.617l2.196-2.196v36.646c0,1.854,2.196,2.814,4.461,2.814
		C291.935,371.667,294.199,370.706,294.199,368.853z"/>
	<path id="XMLID_822_" fill="#FFED00" d="M327.55,321.5h-24.362c-1.99,0-3.911,1.441-3.911,2.814v10.568
		c0,1.646,1.99,2.882,4.392,2.882c2.333,0,4.529-1.235,4.529-2.882v-5.56h14.343v4.53l-17.911,32.117
		c-0.343,0.55-0.412,1.03-0.412,1.578c0,2.54,2.813,4.461,5.628,4.461c1.166,0,2.059-0.412,2.539-1.304l17.362-33.353
		c0.823-1.647,1.716-3.774,1.716-5.216v-7.823C331.462,322.941,329.266,321.5,327.55,321.5z"/>
	<path id="XMLID_821_" fill="#FFED00" d="M350.469,374.412c1.098,0,2.196-0.55,2.676-1.511l24.637-49.822
		c0.207-0.411,0.275-0.823,0.275-1.236c0-1.852-1.784-3.088-3.433-3.088c-1.028,0-1.989,0.48-2.47,1.441l-24.637,50.029
		c-0.206,0.344-0.343,0.756-0.343,1.167C347.175,372.833,348.479,374.412,350.469,374.412z"/>
	<path id="XMLID_820_" fill="#FFED00" d="M404.337,371.667c2.196,0,4.461-0.961,4.461-2.814v-44.607c0-1.784-2.127-2.882-3.98-2.882
		c-0.754,0-1.373,0.274-1.853,0.687l-8.098,6.176c-1.099,0.687-1.716,1.99-1.716,3.227c0,1.783,1.166,3.567,2.882,3.567
		c0.48,0,1.098-0.137,1.646-0.617l2.196-2.196v36.646C399.876,370.706,402.072,371.667,404.337,371.667z"/>
	<path id="XMLID_816_" fill="#FFED00" d="M438.924,344.217c3.911-1.373,6.588-4.806,6.588-10.569c0-8.716-6.107-12.147-14.48-12.147
		c-8.441,0-14.549,3.432-14.549,12.147c0,5.764,2.677,9.196,6.588,10.569c-4.872,1.783-8.166,5.832-8.166,12.9v0.824
		c0,10.226,7.069,14.137,16.127,14.137c9.06,0,16.06-3.911,16.06-14.137v-0.824C447.091,350.049,443.865,346,438.924,344.217z
		 M431.031,328.775c3.706,0,5.902,1.716,5.902,5.97c0,4.255-2.196,5.971-5.902,5.971c-3.773,0-5.901-1.716-5.901-5.971
		C425.13,330.491,427.258,328.775,431.031,328.775z M438.169,356.912c0,5.353-2.607,7.893-7.138,7.893
		c-4.461,0-7.205-2.472-7.205-7.893v-1.372c0-5.216,2.677-7.55,7.205-7.55c4.461,0,7.138,2.334,7.138,7.55V356.912z"/>
	<path id="XMLID_815_" fill="#FFED00" d="M455.872,362.745c-2.676,0-4.666,2.127-4.666,4.667c0,2.47,1.99,4.666,4.666,4.666
		c2.471,0,4.599-2.196,4.599-4.666C460.471,364.872,458.343,362.745,455.872,362.745z"/>
	<path id="XMLID_812_" fill="#FFED00" d="M481.605,372.078c9.06,0,16.129-4.254,16.129-15.715v-19.147
		c0-11.46-7.069-15.716-16.129-15.716c-9.058,0-16.058,4.256-16.058,15.716v19.147C465.548,367.824,472.548,372.078,481.605,372.078
		z M474.47,337.216c0-5.421,2.607-7.893,7.136-7.893c4.461,0,7.207,2.472,7.207,7.893v19.147c0,5.422-2.746,7.892-7.207,7.892
		c-4.528,0-7.136-2.47-7.136-7.892V337.216z"/>
	<path id="XMLID_811_" fill="#FFED00" d="M518.044,372.078c9.059,0,16.47-4.186,16.47-15.234v-1.304c0-5.696-2.95-8.784-7-10.364
		c3.364-1.577,5.354-5.97,5.354-11.392c0-9.127-6.177-12.284-14.48-12.284c-11.597,0-15.029,7.069-15.029,11.941
		c0,2.882,0.618,3.843,4.599,3.843c3.293,0,4.255-1.373,4.255-3.431c0-2.746,1.646-4.598,6.107-4.598c3.706,0,6.04,1.509,6.04,6.039
		c0,5.901-2.883,6.725-6.314,6.725c-1.99,0-2.677,1.784-2.677,3.501c0,1.783,0.687,3.5,2.677,3.5c4.393,0,7.55,1.44,7.55,6.52v1.304
		c0,5.215-2.196,7.411-7.345,7.411c-4.392,0-7.136-1.922-7.136-5.01c0-2.196-0.961-3.157-4.599-3.157
		c-3.088,0-4.255,0.756-4.255,3.5C502.26,365.147,506.79,372.078,518.044,372.078z"/>
	<path id="XMLID_810_" fill="#FFED00" d="M547.827,367.412c0-2.54-2.129-4.667-4.599-4.667c-2.677,0-4.667,2.127-4.667,4.667
		c0,2.47,1.99,4.666,4.667,4.666C545.698,372.078,547.827,369.882,547.827,367.412z"/>
	<path id="XMLID_809_" fill="#FFED00" d="M551.601,362.196v6.656c0,1.717,2.332,2.814,3.912,2.814h24.431
		c1.51,0,2.813-1.922,2.813-3.98s-1.304-3.843-2.813-3.843h-19.078v-1.647c0-7.137,21.754-11.941,21.754-26.764
		c0-8.717-7.411-13.933-15.372-13.933c-7.618,0-14.754,4.804-14.754,12.627c0,3.707,1.715,4.806,4.049,4.806
		c2.951,0,4.666-1.648,4.666-3.295c0-4.255,2.746-6.039,6.107-6.039c4.53,0,6.383,3.293,6.383,6.107
		C573.698,345.383,551.601,351.216,551.601,362.196z"/>
	<path id="XMLID_806_" fill="#FFED00" d="M587.694,337.216v19.147c0,11.461,7,15.715,16.059,15.715
		c9.06,0,16.128-4.254,16.128-15.715v-19.147c0-11.46-7.068-15.716-16.128-15.716C594.694,321.5,587.694,325.756,587.694,337.216z
		 M596.615,337.216c0-5.421,2.609-7.893,7.138-7.893c4.461,0,7.207,2.472,7.207,7.893v19.147c0,5.422-2.746,7.892-7.207,7.892
		c-4.528,0-7.138-2.47-7.138-7.892V337.216z"/>
	<path id="XMLID_805_" fill="#FFED00" d="M634.428,371.667c2.196,0,4.461-0.961,4.461-2.814v-44.607c0-1.784-2.127-2.882-3.98-2.882
		c-0.755,0-1.373,0.274-1.854,0.687l-8.097,6.176c-1.099,0.687-1.716,1.99-1.716,3.227c0,1.783,1.166,3.567,2.882,3.567
		c0.48,0,1.098-0.137,1.646-0.617l2.196-2.196v36.646C629.967,370.706,632.163,371.667,634.428,371.667z"/>
	<path id="XMLID_804_" fill="#FFED00" d="M672.24,321.5h-24.363c-1.989,0-3.911,1.441-3.911,2.814v10.568
		c0,1.646,1.99,2.882,4.392,2.882c2.334,0,4.53-1.235,4.53-2.882v-5.56h14.342v4.53l-17.911,32.117
		c-0.343,0.55-0.411,1.03-0.411,1.578c0,2.54,2.813,4.461,5.627,4.461c1.167,0,2.06-0.412,2.54-1.304l17.362-33.353
		c0.823-1.647,1.715-3.774,1.715-5.216v-7.823C676.151,322.941,673.956,321.5,672.24,321.5z"/>
</g>
</svg>
