<?xml version="1.0" encoding="UTF-8" standalone="no"?>
<!-- Generator: Adobe Illustrator 15.1.0, SVG Export Plug-In . SVG Version: 6.00 Build 0)  -->

<svg
   xmlns:dc="http://purl.org/dc/elements/1.1/"
   xmlns:cc="http://creativecommons.org/ns#"
   xmlns:rdf="http://www.w3.org/1999/02/22-rdf-syntax-ns#"
   xmlns:svg="http://www.w3.org/2000/svg"
   xmlns="http://www.w3.org/2000/svg"
   xmlns:sodipodi="http://sodipodi.sourceforge.net/DTD/sodipodi-0.dtd"
   xmlns:inkscape="http://www.inkscape.org/namespaces/inkscape"
   version="1.1"
   id="Layer_1"
   x="0px"
   y="0px"
   width="600"
   height="600"
   viewBox="0 0 599.99998 600"
   enable-background="new 0 0 687.869 345"
   xml:space="preserve"
   inkscape:version="0.91 r13725"
   sodipodi:docname="tickets.svg"><metadata
     id="metadata34"><rdf:RDF><cc:Work
         rdf:about=""><dc:format>image/svg+xml</dc:format><dc:type
           rdf:resource="http://purl.org/dc/dcmitype/StillImage" /><dc:title></dc:title></cc:Work></rdf:RDF></metadata><defs
     id="defs32" /><sodipodi:namedview
     pagecolor="#ffffff"
     bordercolor="#666666"
     borderopacity="1"
     objecttolerance="10"
     gridtolerance="10"
     guidetolerance="10"
     inkscape:pageopacity="0"
     inkscape:pageshadow="2"
     inkscape:window-width="1920"
     inkscape:window-height="1023"
     id="namedview30"
     showgrid="false"
     inkscape:zoom="0.89551933"
     inkscape:cx="393.53511"
     inkscape:cy="299.91391"
     inkscape:window-x="0"
     inkscape:window-y="24"
     inkscape:window-maximized="1"
     inkscape:current-layer="Layer_1" /><rect
     style="fill:#ffed00;fill-opacity:1;stroke:none;stroke-width:1;stroke-miterlimit:4;stroke-dasharray:none;stroke-opacity:1"
     id="rect4226"
     width="641.15948"
     height="649.05554"
     x="-26.846579"
     y="-28.525797" /><text
     xml:space="preserve"
     style="font-style:normal;font-weight:normal;font-size:117.11225891px;line-height:125%;font-family:sans-serif;letter-spacing:0px;word-spacing:0px;fill:#009ee2;fill-opacity:1;stroke:none;stroke-width:1px;stroke-linecap:butt;stroke-linejoin:miter;stroke-opacity:1"
     x="56.694164"
     y="173.49367"
     id="text4162"
     sodipodi:linespacing="125%"><tspan
       sodipodi:role="line"
       id="tspan4164"
       x="56.694164"
       y="173.49367"
       style="font-style:normal;font-variant:normal;font-weight:normal;font-stretch:normal;font-size:117.11225891px;line-height:125%;font-family:'Nimbus Mono L';-inkscape-font-specification:'Nimbus Mono L, Normal';text-align:start;writing-mode:lr-tb;text-anchor:start;fill:#009ee2;fill-opacity:1">ENTRADA</tspan><tspan
       sodipodi:role="line"
       x="56.694164"
       y="319.884"
       style="font-style:normal;font-variant:normal;font-weight:normal;font-stretch:normal;font-size:117.11225891px;line-height:125%;font-family:'Nimbus Mono L';-inkscape-font-specification:'Nimbus Mono L, Normal';text-align:start;writing-mode:lr-tb;text-anchor:start;fill:#009ee2;fill-opacity:1"
       id="tspan4166">GENERAL</tspan></text>
<g
     transform="translate(603.71054,78.406391)"
     id="XMLID_113_"><g
       id="XMLID_20_"><path
         style="fill:#009ee2"
         inkscape:connector-curvature="0"
         id="XMLID_55_"
         d="m 75.749,246.769 c -2.143,0 -4.222,0.779 -4.222,2.598 l 0,30.396 c 0,5.065 -2.663,7.469 -7.144,7.469 -4.481,0 -7.145,-2.403 -7.145,-7.469 l 0,-30.396 c 0,-1.818 -2.143,-2.598 -4.222,-2.598 -2.143,0 -4.222,0.779 -4.222,2.598 l 0,30.396 c 0,10.846 6.82,14.873 15.588,14.873 8.703,0 15.587,-4.027 15.587,-14.873 l 0,-30.396 c 0.001,-1.819 -2.142,-2.598 -4.22,-2.598 z" /><path
         style="fill:#009ee2"
         inkscape:connector-curvature="0"
         id="XMLID_54_"
         d="m 94.841,258.654 c 0,-3.118 2.663,-5.001 7.339,-5.001 5.456,0 6.95,2.468 8.963,2.468 2.338,0 3.377,-2.987 3.377,-4.481 0,-4.287 -8.508,-5.196 -12.34,-5.196 -7.469,0 -15.783,3.313 -15.783,12.99 0,15.393 20.849,12.405 20.849,22.147 0,3.896 -3.377,5.65 -7.274,5.65 -6.625,0 -8.378,-5.001 -11.041,-5.001 -2.013,0 -3.702,2.728 -3.702,4.546 0,3.768 6.495,8.054 15.003,8.054 8.963,0 15.458,-4.806 15.458,-14.094 -0.001,-16.821 -20.849,-14.028 -20.849,-22.082 z" /><path
         style="fill:#009ee2"
         inkscape:connector-curvature="0"
         id="XMLID_51_"
         d="m 141.667,249.236 c -0.585,-1.948 -2.988,-2.857 -5.456,-2.857 -2.403,0 -4.806,0.909 -5.391,2.857 l -12.535,40.853 c -0.065,0.26 -0.13,0.52 -0.13,0.649 0,2.078 3.053,3.508 5.326,3.508 1.429,0 2.533,-0.455 2.858,-1.689 l 2.468,-8.638 14.873,0 2.468,8.638 c 0.325,1.234 1.429,1.689 2.858,1.689 2.273,0 5.326,-1.494 5.326,-3.508 0,-0.194 -0.065,-0.39 -0.13,-0.649 l -12.535,-40.853 z m -11.107,28.058 5.65,-19.938 5.65,19.938 -11.3,0 z" /><path
         style="fill:#009ee2"
         inkscape:connector-curvature="0"
         id="XMLID_47_"
         d="m 182.581,268.526 c 3.442,-1.494 5.521,-5.001 5.521,-10.327 0,-9.223 -6.3,-11.431 -13.055,-11.431 l -12.535,0 c -1.884,0 -3.702,0.909 -3.702,2.663 l 0,42.216 c 0,1.364 1.429,2.599 3.702,2.599 l 13.769,0 c 7.339,0 12.99,-3.638 12.99,-13.77 l 0,-1.364 c 0,-6.494 -2.728,-9.027 -6.69,-10.586 z m -15.393,-14.353 7.209,0 c 3.312,0 5.261,2.078 5.261,5.455 0,3.313 -1.689,5.586 -5.196,5.586 l -7.274,0 0,-11.041 z m 13.64,25.59 c 0,4.936 -2.338,7.079 -6.3,7.079 l -7.339,0 0,-15.003 7.339,0 c 3.961,0 6.3,1.818 6.3,6.884 l 0,1.04 z" /><path
         style="fill:#009ee2"
         inkscape:connector-curvature="0"
         id="XMLID_46_"
         d="m 219.599,286.842 -15.847,0 0,-37.476 c 0,-1.818 -2.144,-2.598 -4.222,-2.598 -2.144,0 -4.222,0.779 -4.222,2.598 l 0,42.217 c 0,1.754 1.818,2.663 3.702,2.663 l 20.588,0 c 1.689,0 2.533,-1.884 2.533,-3.702 0.001,-1.884 -0.843,-3.702 -2.532,-3.702 z" /><path
         style="fill:#009ee2"
         inkscape:connector-curvature="0"
         id="XMLID_45_"
         d="m 253.565,254.173 c 1.688,0 2.663,-1.754 2.663,-3.768 0,-1.753 -0.844,-3.637 -2.663,-3.637 l -23.122,0 c -1.883,0 -3.702,0.909 -3.702,2.663 l 0,42.151 c 0,1.754 1.819,2.663 3.702,2.663 l 23.122,0 c 1.818,0 2.663,-1.884 2.663,-3.638 0,-2.013 -0.974,-3.767 -2.663,-3.767 l -18.381,0 0,-13.055 9.873,0 c 1.818,0 2.663,-1.754 2.663,-3.247 0,-1.754 -0.974,-3.378 -2.663,-3.378 l -9.873,0 0,-12.989 18.381,0 z" /><path
         style="fill:#009ee2"
         inkscape:connector-curvature="0"
         id="XMLID_44_"
         d="m 280.516,259.701 c 0,2.144 1.883,3.832 4.027,3.832 1.948,0 3.962,-1.688 3.962,-3.832 0,-2.079 -2.014,-3.832 -3.962,-3.832 -2.144,0 -4.027,1.753 -4.027,3.832 z" /><path
         style="fill:#009ee2"
         inkscape:connector-curvature="0"
         id="XMLID_43_"
         d="m 294.999,267.495 -20.588,0 c -1.559,0 -2.728,1.429 -2.728,3.313 0,1.948 1.169,3.182 2.728,3.182 l 20.588,0 c 1.429,0 2.793,-1.233 2.793,-3.182 0,-1.884 -1.364,-3.313 -2.793,-3.313 z" /><path
         style="fill:#009ee2"
         inkscape:connector-curvature="0"
         id="XMLID_42_"
         d="m 284.542,277.951 c -2.144,0 -4.027,1.624 -4.027,3.832 0,2.078 1.883,3.832 4.027,3.832 1.948,0 3.962,-1.754 3.962,-3.832 0,-2.208 -2.013,-3.832 -3.962,-3.832 z" /><path
         style="fill:#009ee2"
         inkscape:connector-curvature="0"
         id="XMLID_41_"
         d="m 320.327,246.769 c -2.144,0 -4.222,0.779 -4.222,2.598 l 0,42.217 c 0,1.754 2.078,2.663 4.222,2.663 2.078,0 4.222,-0.909 4.222,-2.663 l 0,-42.217 c -10e-4,-1.819 -2.144,-2.598 -4.222,-2.598 z" /><path
         style="fill:#009ee2"
         inkscape:connector-curvature="0"
         id="XMLID_40_"
         d="m 365.724,246.769 c -3.053,0 -4.481,0.649 -6.625,4.481 l -7.989,14.548 -7.989,-14.548 c -2.143,-3.832 -3.507,-4.481 -6.56,-4.481 -2.144,0 -4.222,1.104 -4.222,4.222 l 0,40.593 c 0,1.754 2.078,2.663 4.222,2.663 2.078,0 4.222,-0.909 4.222,-2.663 l 0,-28.447 7.469,14.028 c 0.714,1.299 1.754,1.688 2.793,1.688 1.039,0 2.143,-0.39 2.858,-1.688 l 7.599,-13.509 0,27.928 c 0,1.754 2.079,2.663 4.222,2.663 2.079,0 4.222,-0.909 4.222,-2.663 l 0,-40.594 c 0,-3.118 -2.078,-4.221 -4.222,-4.221 z" /><path
         style="fill:#009ee2"
         inkscape:connector-curvature="0"
         id="XMLID_37_"
         d="m 397.936,249.236 c -0.585,-1.948 -2.987,-2.857 -5.456,-2.857 -2.402,0 -4.806,0.909 -5.391,2.857 l -12.535,40.853 c -0.065,0.26 -0.13,0.52 -0.13,0.649 0,2.078 3.052,3.508 5.326,3.508 1.429,0 2.533,-0.455 2.857,-1.689 l 2.469,-8.638 14.873,0 2.468,8.638 c 0.325,1.234 1.429,1.689 2.857,1.689 2.273,0 5.326,-1.494 5.326,-3.508 0,-0.194 -0.065,-0.39 -0.13,-0.649 l -12.534,-40.853 z m -11.106,28.058 5.65,-19.938 5.65,19.938 -11.3,0 z" /><path
         style="fill:#009ee2"
         inkscape:connector-curvature="0"
         id="XMLID_36_"
         d="m 429.823,254.173 c 5.521,0 6.561,3.377 6.755,6.43 0.065,2.014 1.948,2.663 4.222,2.663 2.793,0 4.222,-0.78 4.222,-4.027 0,-7.794 -6.56,-12.47 -15.522,-12.47 -8.249,0 -14.938,4.026 -14.938,14.873 l 0,18.121 c 0,10.846 6.625,14.873 15.198,14.873 8.573,0 15.263,-4.027 15.263,-14.873 l 0,-7.729 c 0,-1.429 -0.975,-2.728 -2.663,-2.728 l -11.041,0 c -1.688,0 -2.598,1.688 -2.598,3.313 0,1.688 0.909,3.313 2.598,3.313 l 5.261,0 0,3.832 c 0,5.065 -2.598,7.469 -6.819,7.469 -4.286,0 -6.755,-2.403 -6.755,-7.469 l 0,-18.121 c -0.003,-5.068 2.466,-7.47 6.817,-7.47 z" /><path
         style="fill:#009ee2"
         inkscape:connector-curvature="0"
         id="XMLID_33_"
         d="m 455.93,246.769 c -2.144,0 -4.222,0.779 -4.222,2.598 l 0,42.217 c 0,1.754 2.078,2.663 4.222,2.663 2.078,0 4.222,-0.909 4.222,-2.663 l 0,-42.217 c 0,-1.819 -2.144,-2.598 -4.222,-2.598 z" /><path
         style="fill:#009ee2"
         inkscape:connector-curvature="0"
         id="XMLID_31_"
         d="m 495.222,246.769 c -2.144,0 -4.222,0.779 -4.222,2.598 l 0,26.109 -12.535,-24.226 c -2.013,-3.832 -3.247,-4.481 -6.3,-4.481 -2.144,0 -4.222,0.844 -4.222,2.663 l 0,42.151 c 0,1.754 2.078,2.663 4.222,2.663 2.078,0 4.222,-0.909 4.222,-2.663 l 0,-26.109 13.964,26.109 c 1.104,2.014 2.857,2.663 4.871,2.663 2.078,0 4.222,-0.909 4.222,-2.663 l 0,-42.217 c 0,-1.818 -2.144,-2.597 -4.222,-2.597 z" /><path
         style="fill:#009ee2"
         inkscape:connector-curvature="0"
         id="XMLID_28_"
         d="m 527.434,249.236 c -0.584,-1.948 -2.987,-2.857 -5.455,-2.857 -2.403,0 -4.807,0.909 -5.392,2.857 l -12.534,40.853 c -0.065,0.26 -0.13,0.52 -0.13,0.649 0,2.078 3.052,3.508 5.325,3.508 1.429,0 2.533,-0.455 2.857,-1.689 l 2.469,-8.638 14.873,0 2.468,8.638 c 0.325,1.234 1.429,1.689 2.857,1.689 2.273,0 5.326,-1.494 5.326,-3.508 0,-0.194 -0.064,-0.39 -0.13,-0.649 l -12.534,-40.853 z m -11.106,28.058 5.651,-19.938 5.65,19.938 -11.301,0 z" /><path
         style="fill:#009ee2"
         inkscape:connector-curvature="0"
         id="XMLID_23_"
         d="m 568.35,268.526 c 3.442,-1.494 5.521,-5.001 5.521,-10.327 0,-9.223 -6.3,-11.431 -13.055,-11.431 l -12.534,0 c -1.884,0 -3.702,0.909 -3.702,2.663 l 0,42.216 c 0,1.364 1.429,2.599 3.702,2.599 l 13.769,0 c 7.34,0 12.99,-3.638 12.99,-13.77 l 0,-1.364 c 0,-6.494 -2.729,-9.027 -6.691,-10.586 z m -15.392,-14.353 7.21,0 c 3.312,0 5.261,2.078 5.261,5.455 0,3.313 -1.689,5.586 -5.196,5.586 l -7.274,0 0,-11.041 z m 13.639,25.59 c 0,4.936 -2.339,7.079 -6.301,7.079 l -7.339,0 0,-15.003 7.339,0 c 3.962,0 6.301,1.818 6.301,6.884 l 0,1.04 z" /><path
         style="fill:#009ee2"
         inkscape:connector-curvature="0"
         id="XMLID_22_"
         d="m 605.369,286.842 -15.848,0 0,-37.476 c 0,-1.818 -2.144,-2.598 -4.222,-2.598 -2.144,0 -4.222,0.779 -4.222,2.598 l 0,42.217 c 0,1.754 1.818,2.663 3.702,2.663 l 20.589,0 c 1.688,0 2.533,-1.884 2.533,-3.702 0.001,-1.884 -0.844,-3.702 -2.532,-3.702 z" /><path
         style="fill:#009ee2"
         inkscape:connector-curvature="0"
         id="XMLID_21_"
         d="m 639.333,254.173 c 1.689,0 2.663,-1.754 2.663,-3.768 0,-1.753 -0.844,-3.637 -2.663,-3.637 l -23.121,0 c -1.884,0 -3.702,0.909 -3.702,2.663 l 0,42.151 c 0,1.754 1.818,2.663 3.702,2.663 l 23.121,0 c 1.819,0 2.663,-1.884 2.663,-3.638 0,-2.013 -0.974,-3.767 -2.663,-3.767 l -18.38,0 0,-13.055 9.872,0 c 1.818,0 2.663,-1.754 2.663,-3.247 0,-1.754 -0.975,-3.378 -2.663,-3.378 l -9.872,0 0,-12.989 18.38,0 z" /></g><g
       id="XMLID_2_"><path
         style="fill:#009ee2"
         inkscape:connector-curvature="0"
         id="XMLID_575_"
         d="m 192.134,99.345 -18.79,0 5.78,-30.839 c -0.236,-8.433 -7.228,-11.807 -14.454,-11.807 -6.019,0 -12.043,2.409 -12.768,6.503 l -6.506,36.143 -26.493,0 5.537,-30.839 c 0,-8.433 -6.983,-11.807 -14.213,-11.807 -6.021,0 -12.043,2.409 -13.01,6.503 l -6.502,36.143 -23.609,0 c -5.303,0 -8.672,5.057 -8.672,11.8 0,6.985 3.369,11.322 8.913,11.322 l 18.792,0 -5.303,29.626 -23.367,0 c -5.06,0 -8.674,5.305 -8.674,12.056 0,6.733 3.378,11.32 8.674,11.32 l 18.79,0 -5.784,34.203 c 0,7.71 8.438,11.57 15.178,11.57 4.819,0 11.326,-2.895 12.047,-7.233 l 6.985,-38.54 26.02,0 -6.025,34.203 c 0,7.71 8.672,11.57 15.417,11.57 5.299,0 11.566,-2.895 12.286,-7.233 l 6.987,-38.54 23.367,0 c 4.34,0 9.155,-4.813 9.155,-11.807 0,-6.498 -4.815,-11.569 -9.394,-11.569 l -18.792,0 5.539,-29.626 23.124,0 c 4.579,0 8.922,-4.82 8.922,-11.565 0.001,-6.743 -4.576,-11.557 -9.157,-11.557 z m -56.851,52.748 -26.021,0 5.303,-29.626 26.259,0 -5.541,29.626 z" /><path
         style="fill:#009ee2"
         inkscape:connector-curvature="0"
         id="XMLID_577_"
         d="m 252.633,119.698 -17.096,0 2.661,-36.633 49.97,0 c 5.773,0 8.656,-6.227 8.656,-12.664 0,-6.213 -2.883,-12.658 -8.656,-12.658 l -68.399,0 c -3.333,0 -5.108,3.554 -5.555,9.109 l -5.769,58.404 c 0,1.998 -0.225,3.992 -0.225,5.771 0,6.885 2.442,11.329 11.548,11.329 l 32.865,0 c 14.436,0 23.319,7.994 23.319,24.873 l 0,4.217 c 0,16.873 -8.883,24.646 -23.539,24.646 -12.885,0 -22.872,-5.996 -22.872,-16.875 0,-6.217 -2.227,-11.105 -14.436,-11.105 -9.105,0 -14.438,2.888 -14.438,13.105 0,20.651 18.432,40.194 52.409,40.194 28.649,0 51.748,-13.546 51.748,-49.965 l 0,-4.217 c -0.001,-34.869 -22.877,-47.531 -52.191,-47.531 z" /><path
         style="fill:#009ee2"
         inkscape:connector-curvature="0"
         id="XMLID_578_"
         d="m 476.29,83.065 c 21.096,0 22.653,15.095 23.096,21.982 0.228,6.654 6.218,9.101 14.432,9.101 9.772,0 14.438,-2.663 14.438,-14.214 0,-25.761 -21.981,-42.191 -52.855,-42.191 -27.983,0 -51.3,13.771 -51.3,50.854 l 0,61.962 c 0,37.082 23.096,50.853 51.08,50.853 31.094,0 53.075,-17.1 53.075,-43.967 0,-11.327 -4.665,-14.221 -14.663,-14.221 -7.545,0 -13.764,2.225 -14.206,9.114 -0.667,9.319 -2.442,23.753 -22.653,23.753 -15.321,0 -23.762,-8.212 -23.762,-25.532 l 0,-61.962 C 452.97,91.279 461.411,83.065 476.29,83.065 Z" /><path
         style="fill:#009ee2"
         inkscape:connector-curvature="0"
         id="XMLID_1297_"
         d="m 589.514,57.743 -39.305,0 c -7.556,0 -12.658,4.218 -12.658,8.88 l 0,144.572 c 0,4.663 5.103,8.886 12.658,8.886 l 39.305,0 c 29.316,0 52.187,-13.768 52.187,-50.86 l 0,-60.624 c 0,-37.082 -22.87,-50.854 -52.187,-50.854 z m 23.317,111.478 c 0,17.325 -8.66,25.54 -23.316,25.54 l -23.099,0 0,-111.696 23.099,0 c 14.656,0 23.316,8.214 23.316,25.531 l 0,60.625 z" /><path
         style="fill:#009ee2"
         inkscape:connector-curvature="0"
         id="XMLID_1300_"
         d="m 343.656,101.115 c 0,-12.338 9.907,-18.388 21.957,-19.216 11.523,0.802 20.12,6.683 20.12,16.773 0,6.216 2.229,11.106 14.438,11.106 9.105,0 14.436,-2.889 14.436,-13.106 0,-19.513 -16.465,-38.026 -46.939,-40.009 l -0.027,0 c -30.644,0 -52.854,15.576 -52.854,47.336 0,57.521 71.287,47.967 71.287,75.509 0,9.791 -7.703,15.481 -21.348,16.429 l -0.011,0 c -12.886,0 -22.876,-5.996 -22.876,-16.876 0,-6.213 -2.22,-11.104 -14.431,-11.104 -9.105,0 -14.44,2.889 -14.44,13.106 0,19.741 16.854,38.453 48.013,40.067 0,0 1.63,0.115 2.443,0.092 0.649,0.015 1.95,-0.083 1.95,-0.083 24.297,-1.251 49.568,-13.099 49.568,-44.3 -0.001,-52.624 -71.286,-42.415 -71.286,-75.724 z" /></g></g><text
     xml:space="preserve"
     style="font-style:normal;font-weight:normal;font-size:117.11225891px;line-height:125%;font-family:sans-serif;letter-spacing:0px;word-spacing:0px;fill:#ffed00;fill-opacity:1;stroke:none;stroke-width:1px;stroke-linecap:butt;stroke-linejoin:miter;stroke-opacity:1"
     x="142.27559"
     y="865.2019"
     id="text4162-6"
     sodipodi:linespacing="125%"><tspan
       sodipodi:role="line"
       id="tspan4164-8"
       x="142.27559"
       y="865.2019"
       style="font-style:normal;font-variant:normal;font-weight:normal;font-stretch:normal;font-size:117.11225891px;line-height:125%;font-family:'Nimbus Mono L';-inkscape-font-specification:'Nimbus Mono L, Normal';text-align:start;writing-mode:lr-tb;text-anchor:start;fill:#ffed00;fill-opacity:1">ENTRADA</tspan><tspan
       sodipodi:role="line"
       x="142.27559"
       y="1011.5922"
       style="font-style:normal;font-variant:normal;font-weight:normal;font-stretch:normal;font-size:117.11225891px;line-height:125%;font-family:'Nimbus Mono L';-inkscape-font-specification:'Nimbus Mono L, Normal';text-align:start;writing-mode:lr-tb;text-anchor:start;fill:#ffed00;fill-opacity:1"
       id="tspan4166-3">GENERAL</tspan></text>
</svg>