<?xml version="1.0" standalone="no"?>
<!DOCTYPE svg PUBLIC "-//W3C//DTD SVG 20010904//EN"
 "http://www.w3.org/TR/2001/REC-SVG-20010904/DTD/svg10.dtd">
<svg version="1.0" xmlns="http://www.w3.org/2000/svg"
 width="600.000000pt" height="600.000000pt" viewBox="0 0 600.000000 600.000000"
 preserveAspectRatio="xMidYMid meet">
<metadata>
Created by potrace 1.11, written by Peter Selinger 2001-2013
</metadata>
<g transform="translate(0.000000,600.000000) scale(0.100000,-0.100000)"
fill="#000000" stroke="none">
<path d="M2280 4350 c-120 -35 -250 -137 -425 -331 -191 -211 -280 -312 -410
-464 -33 -39 -62 -72 -65 -75 -3 -3 -30 -34 -60 -70 -30 -36 -57 -67 -60 -70
-3 -3 -46 -52 -95 -110 -50 -58 -92 -107 -95 -110 -3 -3 -57 -66 -120 -140
-63 -74 -117 -137 -120 -140 -3 -3 -48 -54 -99 -115 -52 -60 -115 -135 -141
-165 -27 -30 -92 -107 -146 -170 -53 -63 -100 -117 -103 -120 -16 -12 -79 -97
-84 -113 -11 -30 18 -71 71 -100 91 -50 112 -40 252 123 30 35 60 68 65 74 6
6 77 90 160 186 194 227 197 231 215 250 8 8 67 76 130 150 63 74 119 140 125
146 5 6 33 37 60 69 28 31 58 67 68 79 11 11 40 45 65 75 26 30 52 59 57 65 6
6 53 61 105 121 52 61 99 115 105 121 5 6 33 37 60 69 28 32 55 63 60 69 6 7
44 50 85 96 41 47 100 112 131 145 31 33 80 86 109 117 106 116 188 146 234
85 18 -25 21 -42 20 -135 0 -98 -10 -250 -19 -312 -2 -14 -7 -54 -10 -90 -3
-36 -8 -78 -10 -95 -3 -16 -9 -68 -15 -115 -6 -47 -13 -96 -15 -110 -2 -14 -9
-61 -15 -105 -6 -44 -13 -91 -15 -105 -2 -14 -8 -59 -14 -100 -13 -95 -20
-141 -31 -210 -5 -30 -12 -75 -15 -100 -4 -25 -15 -99 -25 -165 -11 -66 -22
-138 -25 -160 -3 -22 -10 -62 -15 -90 -5 -27 -12 -72 -16 -100 -3 -27 -7 -52
-9 -55 -10 -16 -20 -153 -20 -260 0 -143 13 -201 57 -254 47 -58 80 -70 183
-71 78 0 97 4 146 28 118 57 155 101 420 496 225 335 197 294 298 431 160 217
286 352 368 394 41 20 57 20 79 -1 17 -17 16 -87 -2 -363 -6 -87 -5 -727 0
-767 18 -119 64 -180 159 -208 61 -17 165 -19 207 -2 76 30 100 45 150 97 54
56 80 86 249 280 247 283 319 356 363 368 19 5 40 5 51 0 34 -17 71 -94 125
-258 71 -218 109 -295 181 -368 45 -46 76 -66 137 -92 98 -41 151 -47 233 -25
156 40 261 127 240 198 -20 70 -64 82 -183 51 -82 -22 -173 -21 -217 1 -75 39
-102 90 -215 395 -95 258 -161 334 -286 329 -119 -4 -258 -115 -583 -464 -26
-27 -101 -105 -168 -172 -162 -164 -202 -177 -232 -75 -16 54 -22 432 -14 892
3 193 -3 250 -37 307 -62 107 -170 147 -282 105 -175 -67 -313 -220 -715 -796
-303 -434 -354 -497 -406 -499 -26 -2 -38 4 -54 26 -32 42 -30 131 9 377 18
118 41 262 50 320 9 58 18 112 19 120 1 8 6 40 10 70 4 30 9 64 11 75 5 22 24
147 29 185 2 14 15 102 30 195 14 94 28 186 31 205 13 97 16 117 19 140 25
160 36 456 22 595 -20 199 -108 296 -272 301 -38 1 -81 -2 -95 -6z"/>
</g>
</svg>
