<?xml version="1.0" standalone="no"?>
<!DOCTYPE svg PUBLIC "-//W3C//DTD SVG 20010904//EN"
 "http://www.w3.org/TR/2001/REC-SVG-20010904/DTD/svg10.dtd">
<svg version="1.0" xmlns="http://www.w3.org/2000/svg"
 width="600.000000pt" height="600.000000pt" viewBox="0 0 600.000000 600.000000"
 preserveAspectRatio="xMidYMid meet">
<metadata>
Created by potrace 1.11, written by Peter Selinger 2001-2013
</metadata>
<g transform="translate(0.000000,600.000000) scale(0.100000,-0.100000)"
fill="#000000" stroke="none">
<path d="M819 5212 c-13 -2 -15 -77 -14 -620 l0 -617 621 -3 621 -2 -1 622 -1
623 -605 0 c-333 0 -613 -1 -621 -3z"/>
<path d="M2401 5210 c-4 -3 -7 -282 -6 -620 l0 -615 622 -3 621 -2 0 622 0
623 -615 0 c-338 0 -618 -2 -622 -5z"/>
<path d="M3989 5200 c-3 -51 -4 -1207 -1 -1217 3 -10 137 -13 623 -13 l619 0
-2 622 -3 623 -617 0 c-544 0 -618 -2 -619 -15z"/>
<path d="M812 3615 c-4 -5 -7 -286 -8 -622 l0 -613 621 0 622 0 0 620 c0 560
-2 620 -16 621 -9 1 -285 2 -614 3 -390 1 -601 -2 -605 -9z"/>
<path d="M2396 3620 c-1 -3 -2 -282 -2 -620 l1 -615 622 -3 621 -2 -1 622 -2
622 -618 1 c-341 0 -620 -2 -621 -5z"/>
<path d="M3997 3618 c-8 -5 -11 -186 -11 -622 l-1 -616 623 0 622 0 -2 622 -3
622 -608 1 c-335 0 -614 -3 -620 -7z"/>
<path d="M860 2030 l-56 -5 0 -617 0 -618 622 0 621 0 0 620 c0 444 -3 620
-11 620 -81 4 -1136 4 -1176 0z"/>
<path d="M2425 2030 l-30 -5 0 -617 0 -618 622 0 621 0 0 620 c1 574 -1 620
-16 620 -283 4 -1175 4 -1197 0z"/>
<path d="M4014 2031 c-10 -2 -21 -7 -24 -11 -4 -6 -5 -1191 -1 -1222 1 -5 280
-8 621 -8 l620 0 0 620 0 620 -57 1 c-318 3 -1144 3 -1159 0z"/>
</g>
</svg>
